<svg id="fb.svg" xmlns="http://www.w3.org/2000/svg" width="44.438" height="45" viewBox="0 0 44.438 45">
  <defs>
    <style>
      .cls-1 {
        fill: #345bb4;
      }

      .cls-1, .cls-2 {
        fill-rule: evenodd;
      }

      .cls-2 {
        fill: #fff;
      }
    </style>
  </defs>
  <path id="fb" class="cls-1" d="M519.13,2100h30.188a7.177,7.177,0,0,1,7.135,7.22v30.56a7.177,7.177,0,0,1-7.135,7.22H519.13a7.177,7.177,0,0,1-7.136-7.22v-30.56A7.177,7.177,0,0,1,519.13,2100Z" transform="translate(-512 -2100)"/>
  <path id="Facebook" class="cls-2" d="M536.117,2112.05h2.1l-0.011,2.26h-1.947a0.927,0.927,0,0,0-1.047.92v3.58h3.792l-0.529,2.26H535.2v11.29h-2.25l0-11.29h-2.99l-0.006-2.26h3v-3.51a2.988,2.988,0,0,1,3.166-3.25m2.1,0h0m-2.105-1.51h0a5.146,5.146,0,0,0-2.594.69,4.415,4.415,0,0,0-2.074,4.07v2h-1.5a1.483,1.483,0,0,0-1.064.45,1.506,1.506,0,0,0-.437,1.07l0,2.25a1.512,1.512,0,0,0,1.5,1.51h1.488l0,9.78a1.5,1.5,0,0,0,1.5,1.51h2.25a1.5,1.5,0,0,0,1.5-1.51v-9.78h1.774a1.512,1.512,0,0,0,1.441-1.09l0.529-2.25a1.515,1.515,0,0,0-1.441-1.94h-2.291v-1.48h1.493a1.5,1.5,0,0,0,1.5-1.5l0.011-2.19c0-.03,0-0.05,0-0.08a1.507,1.507,0,0,0-1.5-1.51h-2.105Z" transform="translate(-512 -2100)"/>
</svg>
