<svg id="tw.svg" xmlns="http://www.w3.org/2000/svg" width="44.469" height="45" viewBox="0 0 44.469 45">
  <defs>
    <style>
      .cls-1 {
        fill: #00b4ff;
      }

      .cls-1, .cls-2 {
        fill-rule: evenodd;
      }

      .cls-2 {
        fill: #fff;
      }
    </style>
  </defs>
  <path id="tw" class="cls-1" d="M620.671,2100h30.188a7.176,7.176,0,0,1,7.135,7.22v30.56a7.176,7.176,0,0,1-7.135,7.22H620.671a7.176,7.176,0,0,1-7.135-7.22v-30.56A7.176,7.176,0,0,1,620.671,2100Z" transform="translate(-613.531 -2100)"/>
  <path id="Twitter" class="cls-2" d="M639.544,2114.73a4.069,4.069,0,0,1,2.951,1.24,8.315,8.315,0,0,0,2.566-.95,3.941,3.941,0,0,1-1.777,2.16,7.882,7.882,0,0,0,2.322-.62,7.991,7.991,0,0,1-2.017,2.03c0.007,0.17.011,0.34,0.011,0.51a11.238,11.238,0,0,1-11.5,11.14,11.719,11.719,0,0,1-6.2-1.76c0.316,0.03.637,0.05,0.964,0.05a8.224,8.224,0,0,0,5.021-1.68,4.026,4.026,0,0,1-3.776-2.71,4.732,4.732,0,0,0,.761.07,4.15,4.15,0,0,0,1.064-.14,3.951,3.951,0,0,1-3.243-3.84v-0.05a4.042,4.042,0,0,0,1.832.49,3.88,3.88,0,0,1-1.8-3.26,3.772,3.772,0,0,1,.548-1.96,11.658,11.658,0,0,0,8.332,4.09,3.854,3.854,0,0,1-.105-0.89,3.98,3.98,0,0,1,4.043-3.92m6.062,1.83h0m-6.065-3.23a5.409,5.409,0,0,0-5.4,4.61,10.138,10.138,0,0,1-5.792-3.4,1.4,1.4,0,0,0-1.076-.5,0.418,0.418,0,0,0-.111.01,1.381,1.381,0,0,0-1.094.67,5.215,5.215,0,0,0-.42,4.52,1.417,1.417,0,0,0-.363.94v0.05a5.25,5.25,0,0,0,1.45,3.61,1.418,1.418,0,0,0,.039.74,5.3,5.3,0,0,0,1.616,2.38,7.016,7.016,0,0,1-1.525.17,6.777,6.777,0,0,1-.8-0.05,0.953,0.953,0,0,0-.168-0.01,1.406,1.406,0,0,0-.742,2.6,13.137,13.137,0,0,0,6.939,1.97,12.6,12.6,0,0,0,12.908-12.36,9.458,9.458,0,0,0,1.724-1.87,1.387,1.387,0,0,0,.285-0.85,7.881,7.881,0,0,1-1.066-2.63,1.406,1.406,0,0,0-.888-0.32,1.47,1.47,0,0,0-.7.19,6.529,6.529,0,0,1-1.486.63,5.56,5.56,0,0,0-3.328-1.1h0Z" transform="translate(-613.531 -2100)"/>
</svg>
